<?xml version="1.0" encoding="utf-8"?>
<!-- Generator: Adobe Illustrator 23.0.1, SVG Export Plug-In . SVG Version: 6.00 Build 0)  -->
<svg version="1.1" id="Слой_1" xmlns="http://www.w3.org/2000/svg" xmlns:xlink="http://www.w3.org/1999/xlink" x="0px" y="0px"
	 viewBox="0 0 2773.2 1524.8" style="enable-background:new 0 0 2773.2 1524.8;" xml:space="preserve">
<style type="text/css">
	.st0{fill:#EBF3FA;}
	.st1{fill:#DFEBFD;}
	.st2{fill:#BED7FB;}
	.st3{fill:#9EC3F6;}
	.st4{fill:#CDE0FB;}
	.st5{fill:#FFFFFF;}
	.st6{fill:#ADCBF9;}
	.st7{fill:#D86713;}
	.st8{fill:#F99746;}
	.st9{fill:#EE9849;}
	.st10{fill:#F1A34F;}
	.st11{opacity:0.4;fill:#D86713;}
	.st12{fill:#699DEE;}
	.st13{fill:#E9F3FE;}
	.st14{fill:#AFCDFB;}
	.st15{fill:#2B478B;}
	.st16{fill:#233862;}
	.st17{fill:#C65447;}
	.st18{fill:#FFB27D;}
	.st19{fill:#E2915A;}
	.st20{fill:#FCECDB;}
	.st21{fill:#548EE2;}
	.st22{fill:#F4D2B8;}
	.st23{fill:#568CDB;}
	.st24{fill:#B5453C;}
	.st25{fill:#ED7D2B;}
	.st26{fill:#ED975D;}
	.st27{fill:#EBF3FF;}
</style>
<g>
	<path class="st0" d="M194.9,1524.1c0,0-337.5-362.3-57.1-754.6c248.8-348.1,538.9-324.3,751.7-183c90.6,60.2,352,7.4,574.4-346.8
		c303.3-483,1354.8-190.1,1163,553c-92.8,359.6,282.3,372.7,91.2,732.1L194.9,1524.1z"/>
	<g>
		
			<rect x="295.7" y="1100.3" transform="matrix(0.7358 -0.6772 0.6772 0.7358 -733.99 643.751)" class="st1" width="324.6" height="324.6"/>
		
			<rect x="208" y="1134.5" transform="matrix(0.7358 -0.6772 0.6772 0.7358 -692.5981 559.1193)" class="st2" width="324.6" height="65.4"/>
	</g>
	<g>
		<polygon class="st3" points="1165.1,92.4 1328.8,115.8 1220.1,41.7 1214.6,65.4 1174.8,72.7 		"/>
		<polygon class="st4" points="1328.8,115.8 1192.5,45.5 1059,38.8 		"/>
		<polygon class="st4" points="1220.1,41.7 1328.8,115.8 1244.7,0 		"/>
	</g>
	<g>
		<path class="st5" d="M2080.8,415.5l-41.2,29.6l-41.4-29.2c9.2-12.9,24.3-21.5,41.4-21.5C2056.6,394.4,2071.6,402.7,2080.8,415.5z"
			/>
		<g>
			<path class="st5" d="M2039.6,322.3c-41.4,0-78,20.6-100.2,52.1l26.1,18.4c16.4-23.3,43.5-38.4,74.1-38.4
				c30.3,0,57.2,14.9,73.6,37.9l26-18.7C2117,342.5,2080.6,322.3,2039.6,322.3z"/>
		</g>
		<g>
			<path class="st5" d="M2039.6,185.4c-87.6,0-165.1,43.5-212,110.1l26.1,18.4c41.2-58.3,109.2-96.5,185.9-96.5
				c76.1,0,143.6,37.6,184.9,95.1l25.9-18.7C2203.4,228.2,2126.5,185.4,2039.6,185.4z"/>
		</g>
		<g>
			<path class="st5" d="M2039.6,260.3c-62.3,0-117.6,30.8-151.2,78.1l26.1,18.4c27.9-39,73.5-64.5,125.1-64.5
				c51.1,0,96.5,25.1,124.4,63.5l25.9-18.6C2156.3,290.6,2101.4,260.3,2039.6,260.3z"/>
		</g>
	</g>
	<path class="st6" d="M1185.2,594.8l-37.8-0.9c12.1,15.7,14.9,30.2,7.3,42.5c-7.6,12.5-25.6,22.8-52.6,30.6
		c20.4-54.4,30.7-111.7,30.7-170.5c0-127.2-49.5-251.7-142.9-344.8C899.5,61.3,777.3,8.8,645.1,8.8c-74.2,0-146,16.5-211.2,47.9
		c0,0,0,0-0.1,0c-21-6.4-41.4-11.6-61.1-15.6c-99.5-20.2-170.1-6.2-198.8,39.3c-27.3,43.3-12.4,108.5,41.7,184.5c0,0,0,0,0,0
		c-12.1,22.4-23.8,48.9-32.3,74.3C81.5,345.3,27,363.3,7.2,395.7c-23,37.8,8.4,88.4,109.1,137.7c13.9,6.8,28.7,13.5,44.3,20.2
		c12.1,106,60.3,208.7,139.5,287.9c44.8,44.7,97,79.9,155,104.5c177.9,75,390,39.9,534.8-104.5c43.6-43.6,78.1-94.4,102.5-150.6
		c49.7-10.3,82.3-26.4,95.3-47.7C1196.8,628.5,1195.7,612.2,1185.2,594.8z M1068.7,674.7c-33.1,5.9-74.3,9.4-122.5,9.9
		c-74.7,0.9-160.6-5-251-16.9c7.6-16.6,15.1-33.6,22.4-51c28.1,9.4,55.3,16.8,81.3,22.1c29.8,6,56.9,9,81.2,9
		c56.8,0,97.5-16.4,117.7-48.3c3.3-5.3,6-10.8,8.1-16.7h-29c-0.5,0.9-1,1.8-1.5,2.6c-14.9,23.7-48.3,36-95.2,35.9
		c-22.4,0-47.9-2.8-76-8.5c-24.4-5-50.1-11.9-76.5-20.7c7-17.5,13.8-35.2,20.3-53.3c17.7-48.7,32.8-97,45-143.3
		c99.1,14.6,202.6,15,302.1,7.5c6.3,30.5,9.5,61.7,9.5,93.4C1104.5,558.3,1092.5,618.2,1068.7,674.7z M465.1,916.5
		c-14.1-5.1-21.2-25.3-24.8-41.4c-5.6-25.4-6.6-61-2.9-103.1c1.9-21.3,4.8-43.9,8.8-67.6c57.7,15.4,114.9,35.2,170.6,59
		c-12.5,21.6-25.2,41.7-37.9,59.9c-24.2,34.6-47.8,61.4-68.3,77.3C497.7,910.7,479.2,921.6,465.1,916.5z M629.7,740.8
		c-58.3-25.1-118.2-45.9-178.7-61.9c2.1-11,4.5-22.2,7-33.5c16.8,3.8,33.9,7.5,51.2,11.1c50.6,10.3,101,19.1,150.4,26.2
		C649.8,703,639.8,722.4,629.7,740.8z M520.3,638.2c-19.5-4-38.8-8.2-57.7-12.6c8.9-37.1,19.9-75.7,32.6-115.1
		c66.4,40.8,134,74,197.9,97.6c-8,19.2-16.3,37.8-24.7,55.9C619.9,657.1,570.2,648.4,520.3,638.2z M358,137.7
		c36.9,75.6,108.1,138,184.6,179.3c-18.6,40.4-36.2,83.6-52.5,128.4c-3,8.4-6,16.7-8.9,25c-97-63.2-179.2-135.6-233.1-205.8
		c0,0,0,0,0,0C276.7,216.1,313.8,173.2,358,137.7z M773,67.7c14.1,5.1,21.2,25.3,24.8,41.4c5.6,25.4,6.6,61,2.9,103.1
		c-4,46.1-13.2,98.4-27,154.1c-67.5-11.6-134.9-30.8-197-60.9c26.5-55.2,54.4-104.4,82.4-144.5c24.2-34.6,47.8-61.4,68.3-77.3
		c10.7-8.3,25.1-17.2,37.8-17.2C767.9,66.4,770.5,66.8,773,67.7z M767.3,391.4c-11.9,44.8-26.6,91.5-43.7,138.6
		c-6.6,18.2-13.4,36.1-20.4,53.6C639,560,570.8,526.3,503.8,484.7c3.5-10.1,7-20.3,10.7-30.5c15.9-43.8,33.1-85.9,51.2-125.4
		C629,359.5,697.5,379.2,767.3,391.4z M969.9,171.6c59.6,59.6,99.1,131.1,119.1,206c-105.9,7.7-202.9,5.3-289.7-7.2
		c13.8-56.2,23-109.2,27.1-155.9c4.5-51.6,3.9-112.7-17-147.1C870,90.6,924.2,125.8,969.9,171.6z M645.1,37
		c31.8,0,63.1,3.2,93.7,9.6c-36.1,15.7-72.9,59.4-100.9,99.5c-28.6,41-57.2,91.3-84.2,147.5C480.8,254,412,193.3,379.1,121.8
		C455.9,67.2,548.3,37,645.1,37z M196.3,94.5c14.9-23.7,48.3-35.9,95.2-35.9c22.4,0,47.9,2.8,76,8.5c10.6,2.2,21.5,4.7,32.6,7.6
		c0,0,0,0,0,0c-66.9,38.7-125.8,94.7-169.7,164.9c0,0,0,0,0,0C188.9,178.2,176.4,126,196.3,94.5z M234.5,290
		C234.5,290,234.5,290,234.5,290c56.8,70.9,140.4,143.4,238.1,206.3c-13.9,42.2-25.7,83.6-35.2,123.4
		c-81-19.6-175.2-47.3-249.6-78.8c-6.2-61.7,0.5-124.1,19.1-183C214.1,335,223.6,311.5,234.5,290z M138.8,518.8
		C51,476,10.9,434.6,28.8,405.3c14.5-23.8,67.2-39.9,148-45.8c-16.3,54.9-21.9,112-18.6,168.5C151.5,525,145.1,521.9,138.8,518.8z
		 M432.8,639.6c-2.5,11.2-4.8,22.2-6.9,33c-5.6-1.4-11.3-2.7-16.9-4c-95.3-21.7-166.8-26.1-200-26.9c-8.2-24.7-14.2-50-18.1-75.9
		C255.8,590.8,328.9,614.8,432.8,639.6z M218.6,667.9c35.4,1.4,100.9,6.8,184.6,25.8c6,1.4,12,2.8,18,4.3
		c-4.3,25.1-7.5,49.2-9.5,71.7c-3.7,42.8-4,92.1,7.9,127.3c-36.3-20.4-69.6-45.7-99.5-75.6C275.6,776.9,241.4,724.7,218.6,667.9z
		 M505.8,934.5c34-17.8,68.1-58.7,94.4-96.4c13.6-19.4,27.1-41,40.5-64.2c77.2,34.9,151.3,77.9,221,127.9
		C746.9,963.2,617.5,970.1,505.8,934.5z M969.9,821.4c-25.4,25.5-53.4,47.6-83.6,66.2c-73.2-53.5-151.4-99.3-232.9-136.4
		c11.2-20.5,22.2-42.2,33-64.8c74.6,9.9,146.3,15.8,211.8,17.4c17.1,0.5,33.7,0.5,49.8,0.4c41.7-0.5,78.9-3,110.7-7.4
		C1036.4,742.9,1006.5,784.8,969.9,821.4z"/>
	<g>
		<g>
			<path class="st7" d="M959.4,671l-67.4,802c0,0-7.1,48.6,29.1,48.7c59.5,0.1,295.9,0,295.9,0s-44.7-10.1-44.2-32.9
				c0.6-26.8,78.8-825.4,78.8-825.4L959.4,671z"/>
			<path class="st8" d="M1236.2,1507.1c-11.7,0-237.6,0.7-295.5,0c-25.2-0.3-29.7-22.4-29.9-36.8c-0.1-6.9,0.8-11.9,0.8-11.9
				l1.8-20.8l4.5-53.1l3.9-46.9l5.1-60.3l4.3-50.9l47.9-569.9l292.2-7.6c0,0-32.9,334.2-56.2,577.4c-2.6,27.1-5.1,53.1-7.4,77.4
				c-0.7,7.7-1.5,15.3-2.1,22.7c-2.2,23-4.1,44.2-5.9,62.8c-0.9,9.8-1.7,19-2.5,27.3c-3,32.8-4.7,53.8-4.7,57.7
				c0,2.3,0.2,4.5,0.6,6.5C1197.8,1506.3,1231.8,1507.1,1236.2,1507.1z"/>
			<polygon class="st8" points="249.8,234.6 414.1,894.5 436.6,984.9 513.1,1292.2 1934.7,1292.2 1652.7,234.6 			"/>
			<polygon class="st9" points="249.8,234.6 227,242.1 482.9,1315.2 513.1,1292.2 			"/>
			<polygon class="st7" points="482.9,1315.2 1895.7,1315.2 1934.7,1292.2 513.1,1292.2 			"/>
			
				<rect x="979" y="1507.4" transform="matrix(-1 -1.224647e-16 1.224647e-16 -1 2263.9146 3029.3606)" class="st10" width="305.9" height="14.5"/>
			<polygon class="st10" points="1865.9,1097.3 1635.2,248.5 247.5,248.5 247.5,234.6 1652.7,234.6 1882.6,1095.5 			"/>
			<polygon class="st7" points="1207.1,1315.2 1205.6,1326.3 917.9,1384.4 921.8,1337.5 923.7,1315.2 			"/>
			<path class="st11" d="M1236.2,1507.1c-11.7,0-237.6,0.7-295.5,0c-25.2-0.3-29.7-22.4-29.9-36.8l286.3-53.9
				c-3,32.8-4.7,53.8-4.7,57.7c0,2.3,0.2,4.5,0.6,6.5C1197.8,1506.3,1231.8,1507.1,1236.2,1507.1z"/>
			<polygon class="st11" points="1137.6,1078.1 513.1,1292.2 436.6,984.9 			"/>
			<polygon class="st12" points="249.8,234.6 1652.7,234.6 1880.3,1084.6 454.2,1084.6 			"/>
		</g>
		<path class="st7" d="M1261.6,1192.1c-4.1-20.8-24.2-37.7-45.1-37.7c-20.8,0-34.5,16.9-30.4,37.7c4.1,20.8,24.2,37.7,45.1,37.7
			C1252.1,1229.8,1265.7,1212.9,1261.6,1192.1z"/>
		<polygon class="st13" points="1814.1,1047.8 500.6,1047.8 351.9,455.2 340.5,409.7 330.7,371 323,339.9 307.9,280.1 1602.5,280.1 
			1603.4,283.4 1619,339.9 1627.6,371 1638.3,409.7 1650.8,455.2 		"/>
		<polygon class="st13" points="1814.1,1049.8 500.6,1049.8 351.9,457.2 340.5,411.8 330.7,373 323,342 307.9,282.1 1602.5,282.1 
			1603.4,285.4 1619,342 1627.6,373 1638.3,411.8 1650.8,457.2 		"/>
		<polygon class="st14" points="1619,339.9 323,339.9 307.9,280.1 1602,280.1 1603.4,283.4 		"/>
		<g>
			<path class="st13" d="M343.9,310c-1.6-6.3,2.3-11.4,8.5-11.4s12.6,5.1,14.2,11.4c1.6,6.3-2.3,11.4-8.5,11.4
				S345.5,316.3,343.9,310z"/>
			<ellipse transform="matrix(0.662 -0.7495 0.7495 0.662 -99.5042 399.407)" class="st13" cx="393.1" cy="310" rx="10" ry="12.9"/>
			<path class="st13" d="M422.3,310c-1.6-6.3,2.3-11.4,8.5-11.4s12.6,5.1,14.2,11.4c1.6,6.3-2.3,11.4-8.5,11.4
				S423.9,316.3,422.3,310z"/>
		</g>
		<g>
			<path class="st15" d="M909.8,1049.8H779.9c-1.2-10.2-2.3-20.9-3.3-32.1c-1.7-20.1-3.1-41.7-4.1-64.1c-0.2-5.2-0.4-10.4-0.6-15.7
				c-0.2-6.7-0.5-13.5-0.7-20.3c-0.3-11.6-0.6-23.3-0.7-35c0,0,0,0,0,0c-0.2-15-0.3-30.1-0.4-45.2c0,0,0,0,0,0c0-3.8,0-7.5,0-11.3v0
				c0-3.5,0-7,0-10.5c0.1-32.4,0.6-64.2,1.3-93.7c1.5-65.4,3.9-119.9,5.2-146.1v0c0.5-10.8,0.9-16.7,0.9-16.7c0,0,0,0,0,0
				c0.3,0,2.3,0.4,5.4,1.2c2.3,0.6,5.2,1.3,8.4,2.3h0c3,0.9,6.2,2,9.7,3.3c0,0,0,0,0,0c5.9,2.3,12.2,5.1,18.1,8.7
				c0.1,0,0.2,0.1,0.3,0.1c9.7,6,18.5,14,22.5,24.5c3.4,9,11.5,57.1,21.2,121c0.3,1.8,0.5,3.7,0.8,5.5c5.1,33.9,10.7,72,16.2,110.9
				c5.9,41.2,11.8,83.3,17.2,122.3C901.9,992.3,906.2,1023.4,909.8,1049.8z"/>
			<path class="st16" d="M873.4,1049.8H722.2c-2.9-12.5-5.6-24.5-8-35.8c-6.6-31.1-11-56.6-10.8-70.3c0.1-6.4,2.5-11.4,6.7-15.3
				c2.9-2.6,6.5-4.8,10.8-6.4c12.8-4.8,31.1-5.6,50.3-4.4c6.5,0.4,13.1,1,19.6,1.8c35.9,4.4,69.3,13.3,69.3,13.3s2.2,9,4.9,24.8
				c2,11.8,4.2,27.5,5.8,45.9c1,10.7,1.7,22.4,2.2,34.9C873.1,1042.1,873.3,1045.9,873.4,1049.8z"/>
			<path class="st17" d="M803.6,943.9l-1.5,10.9l-7.3,53l-1.2,9.1l-4.5,32.9H631.4c-1.2-21.7-2.4-42.9-2.6-61.4c0-2,0-4.1,0-6
				c0-27.8,2.4-48.4,10.4-53.6c9-5.9,39-4.3,70.9-0.4c3.2,0.4,6.4,0.8,9.6,1.2c18.6,2.5,37.2,5.6,52.2,8.3
				c7.8,1.4,14.5,2.6,19.8,3.7C799.2,943,803.6,943.9,803.6,943.9z"/>
			<path class="st5" d="M628.8,586.4c0,0,86.6-56,148.6-27.3c9.9,4.6,21.2,17.3,29.3,26.2c22.4,24.7,66.3,417.5,66.3,417.5
				s-124.5,42.2-244.2-14.3V586.4z"/>
			<path class="st15" d="M782.4,557.6c0,0,87.6,35.9,99.5,63.5c11.9,27.6,50.4,197,50.4,216.9c0,19.9-67.2,4.4-78-27.6
				c-9-26.6-39.3-108.4-55.2-160.1L782.4,557.6z"/>
			<g>
				<path class="st18" d="M764.2,585c-19.1,3.8-47.2-0.2-67.8-13.8c9.3-22.2,13.1-39.7,14.5-51c0.1-0.6,0.1-1.2,0.2-1.8
					c0.6-5.9,0.5-9.9,0.2-11.7h49.5c0,0,13.5,6.2,13.5,10.5c0,2.3,0,4.5,0.1,6.6c0.1,5.7,0.3,10.7,0.6,14.9
					c0.9,13.9,2.5,20.4,2.5,20.4S783.5,581.2,764.2,585z"/>
				<path class="st19" d="M775,538.6c-37.5,7.2-59.2-13.2-64.1-18.5c-0.7-0.8-1-1.2-1-1.2c0.4-0.2,0.8-0.4,1.2-0.6
					c13.9-5.6,45.6-1.2,63.3,5.3C774.4,529.4,774.7,534.3,775,538.6z"/>
				<path class="st18" d="M698.6,498.5c6.7,36,53.2,34.8,73.3,32.6c5.7-0.6,9.2-1.4,9.2-1.4c6.4-1.7,9.9-11.7,11.6-24.9
					c3.3-26-0.9-64.2-5.3-74c-6.6-14.7-19.1-30.6-65.9-19.1C674.7,423.2,690,452.4,698.6,498.5z"/>
				<path class="st16" d="M789.2,410.8c-6.4-8.9-20-19.7-32.3-26.4c-26.5-14.3-60.4,0.5-60.5,0.5c-38.2,16.8-48.2,46.1-28,91.7
					c21.4,48.2,41.9,42.8,41.9,42.8s-4.3-2.7-3.9-17.7c0-0.9,0.1-1.6,0.1-2.2c0.2-3.1-0.9-6.2-3.2-8.2c-4.8-4.2-7.1-17.1-3.1-20.6
					c4.8-4.3,11.5,0.9,13.7,4.9c1.9,2.8,5.3,3.8,8.4,1.9c11.9-7.5,4.2-22.6,15.5-31.8c11.4-9.2,34.5-1.5,51.5-8.8
					C811.7,428.5,794,417.4,789.2,410.8z"/>
			</g>
			<path class="st15" d="M795.3,1049.8H606.9c1.3-39.1,3.1-85.7,4.9-133c0.5-12.2,1-24.5,1.4-36.7c0.2-5.2,0.4-10.3,0.6-15.4
				c4.2-104.9,8.3-199.7,9.2-204.8c2-11.5,3.8-21.4,5.9-29.9c5.9-24.9,13.3-38.5,29.3-50.2c1.6-1.2,14.4-7.7,25.7-13.3
				c9.2-4.6,17.5-8.6,17.7-8.7v0h0c1.9,0.9,3.9,3.5,6.1,7.4c2.2,3.9,4.5,9,6.8,15c8.6,22.1,17.9,56,24.4,81.3c0,0,0,0.1,0,0.1
				c0,0,0,0,0,0c0,0,0,0,0,0c4.2,16.3,7.2,29,8,32.7c1.4,6.2,3.3,18.1,5.6,34.2v0c3,22,6.7,51.9,10.5,85.8v0c0.4,3.5,0.8,7,1.2,10.6
				c0.5,4.1,0.9,8.2,1.4,12.3v0c0.1,1.3,0.3,2.7,0.4,4v0c1.5,13.4,3,27.3,4.5,41.4c0,0,0,0,0,0c1.3,11.6,18.9,20,20.1,31.8
				c0.1,0.9,0.2,2.6,0.3,5c0.2,5,0.5,12.9,0.8,22.1c0.1,4.1,0.3,8.4,0.4,12.8c0.7,19.7,1.5,41.2,2.5,51.6c0,0.5,0.1,1.1,0.1,1.9
				c0.1,2.1,0.2,5.1,0.3,8.9C795.2,1024.9,795.3,1036.6,795.3,1049.8z"/>
			<path class="st16" d="M666.8,702.2c-0.1,0.2-3,106.1,76.6,118.9c79.6,12.9,26.7,16.3,26.7,16.3S620.3,831,617.8,827
				C615.4,823.1,666.8,702.2,666.8,702.2z"/>
			<path class="st16" d="M734,866.5c0,0-1.5,1.1-4.4,2.9c0,0-0.1,0.1-0.1,0.1c-12.1,7.8-48.2,28.9-100.7,43.1
				c-5.5,1.5-11.2,2.9-17.1,4.2c0.5-12.2,0.9-24.5,1.4-36.7c-6.9-0.5-13.6-1.4-19.7-2.7c0.2-1.6,0.4-3.2,0.6-4.8
				c6.7-2.7,13.3-5.4,19.7-7.9c5.2-2,10.3-4,15-5.8c21.6-8.2,37.5-13.7,37.5-13.7l63.8,20.2L734,866.5z"/>
			<path class="st15" d="M750.9,864.8c0,0-8.2,2-21.3,4.7c0,0-0.1,0-0.1,0c-24.1,4.8-64.5,11.6-100.7,11.3
				c-5.3-0.1-10.6-0.3-15.6-0.7c-6.9-0.5-13.6-1.4-19.7-2.7c-13.2-2.8-24.3-7.5-31.5-14.9c-53.8-54.8,29.3-251.4,46.8-270.5
				c20.4-22.3,57.6-30.2,78.2-32.9c0.9-0.1,1.7-0.2,2.5-0.3c7.2-0.9,11.9-1,12.1-1c0,0,0,0,0,0s-1.6,5.2-4.3,14
				c-1,3.4-2.3,7.3-3.6,11.8c-12.6,41.4-37,122.7-47.7,168.5c-3.9,16.8-6,28.8-5.1,32.4c4.2,15.7,47.6,23.7,75.2,27.3
				c11.5,1.5,20.2,2.2,22.1,2.3c0.1,0,0.3,0,0.4,0l1.6,6.5l3.8,15.7l3.7,15.4L750.9,864.8z"/>
			<polygon class="st8" points="900.9,959 716.2,951.2 753.7,721.1 938.4,728.8 			"/>
			<path class="st18" d="M738.6,814c0,0,36-2.5,37.8,5.9c4.2,19.5-30.9,35.6-42.3,34.5C722.7,853.2,730.3,812.7,738.6,814z"/>
			<path class="st18" d="M928.3,775.6c0,0-34.4-10.8-38.1-3c-8.6,18,21.8,41.8,33.2,43.3C934.7,817.4,936.6,776.2,928.3,775.6z"/>
			<path class="st16" d="M705.3,546.2c0,0-15.1,7.2-22.7,18.1c0,0,56.5,98.2,56.3,97.2C738.6,660.6,719.8,558.8,705.3,546.2z"/>
			<path class="st16" d="M775.7,547.6c5,1.9,14.5,11.7,16.7,17.1l6.7,85.7c0,0-14.4-62.9-21.7-91.3
				C775.6,551.8,776,549.6,775.7,547.6z"/>
			<path class="st17" d="M814.9,723.6c0,0,1.5-6.4,9.9-5.6c8.4,0.7,55.6,3.1,55.6,3.1s9.1-0.1,8.3,5.7L814.9,723.6z"/>
			<path class="st5" d="M760.7,506.7c0,0,6.1,5.6,16,3.9c5.9-1,9.1-8.7,9.1-8.7S774.6,499.8,760.7,506.7z"/>
		</g>
		<g>
			<g>
				<polygon class="st5" points="1635.9,578.3 1499.5,578.8 1455.2,409.4 1591.6,408.9 				"/>
				<g>
					<polygon class="st6" points="1557.8,431.2 1500.6,431.4 1500,428.9 1557.2,428.7 					"/>
					<polygon class="st6" points="1566.9,438.1 1495.1,438.4 1494.5,435.9 1566.3,435.6 					"/>
					<g>
						<polygon class="st6" points="1586.7,472.6 1493.4,473 1492.8,470.5 1586,470.1 						"/>
						<polygon class="st6" points="1588.8,480.9 1495.6,481.2 1494.9,478.7 1588.2,478.4 						"/>
						<polygon class="st6" points="1591,489.1 1497.7,489.5 1497.1,487 1590.3,486.6 						"/>
						<polygon class="st6" points="1593.2,497.4 1499.9,497.7 1499.2,495.2 1592.5,494.9 						"/>
						<polygon class="st6" points="1595.3,505.6 1502,506 1501.4,503.5 1594.7,503.1 						"/>
					</g>
					<g>
						<polygon class="st6" points="1600.6,525.7 1507.3,526.1 1506.6,523.6 1599.9,523.2 						"/>
						<polygon class="st6" points="1602.7,534 1509.4,534.3 1508.8,531.8 1602.1,531.5 						"/>
						<polygon class="st6" points="1604.9,542.3 1511.6,542.6 1510.9,540.1 1604.2,539.8 						"/>
						<polygon class="st6" points="1607,550.5 1513.8,550.9 1513.1,548.4 1606.4,548 						"/>
						<polygon class="st6" points="1609.2,558.8 1515.9,559.1 1515.3,556.6 1608.5,556.3 						"/>
					</g>
				</g>
			</g>
			<g>
				<polygon class="st5" points="1690.9,788.8 1554.4,789.3 1510.2,619.9 1646.6,619.4 				"/>
				<g>
					<polygon class="st6" points="1612.8,641.6 1555.6,641.9 1554.9,639.3 1612.1,639.1 					"/>
					<polygon class="st6" points="1621.9,648.6 1550.1,648.9 1549.4,646.4 1621.3,646.1 					"/>
					<g>
						<polygon class="st6" points="1641.7,683.1 1548.4,683.4 1547.7,680.9 1641,680.6 						"/>
						<polygon class="st6" points="1643.8,691.3 1550.5,691.7 1549.9,689.2 1643.2,688.8 						"/>
						<polygon class="st6" points="1646,699.6 1552.7,699.9 1552,697.4 1645.3,697.1 						"/>
						<polygon class="st6" points="1648.1,707.8 1554.8,708.2 1554.2,705.7 1647.5,705.3 						"/>
						<polygon class="st6" points="1650.3,716.1 1557,716.4 1556.3,713.9 1649.6,713.6 						"/>
					</g>
					<g>
						<polygon class="st6" points="1655.5,736.2 1562.3,736.5 1561.6,734 1654.9,733.7 						"/>
						<polygon class="st6" points="1657.7,744.5 1564.4,744.8 1563.8,742.3 1657,742 						"/>
						<polygon class="st6" points="1659.9,752.7 1566.6,753.1 1565.9,750.6 1659.2,750.2 						"/>
						<polygon class="st6" points="1662,761 1568.7,761.3 1568.1,758.8 1661.4,758.5 						"/>
						<polygon class="st6" points="1664.2,769.2 1570.9,769.6 1570.2,767.1 1663.5,766.7 						"/>
					</g>
				</g>
			</g>
			<g>
				<polygon class="st5" points="1746.2,1000.6 1609.8,1001.1 1565.5,831.8 1702,831.3 				"/>
				<g>
					<polygon class="st6" points="1668.1,853.5 1610.9,853.7 1610.3,851.2 1667.5,851 					"/>
					<polygon class="st6" points="1677.3,860.5 1605.4,860.7 1604.8,858.2 1676.6,858 					"/>
					<g>
						<polygon class="st6" points="1697,894.9 1603.7,895.3 1603.1,892.8 1696.3,892.4 						"/>
						<polygon class="st6" points="1699.2,903.2 1605.9,903.5 1605.2,901 1698.5,900.7 						"/>
						<polygon class="st6" points="1701.3,911.5 1608,911.8 1607.4,909.3 1700.7,909 						"/>
						<polygon class="st6" points="1703.5,919.7 1610.2,920.1 1609.5,917.6 1702.8,917.2 						"/>
						<polygon class="st6" points="1705.6,928 1612.3,928.3 1611.7,925.8 1705,925.5 						"/>
					</g>
					<g>
						<polygon class="st6" points="1710.9,948.1 1617.6,948.4 1616.9,945.9 1710.2,945.6 						"/>
						<polygon class="st6" points="1713,956.3 1619.8,956.7 1619.1,954.2 1712.4,953.8 						"/>
						<polygon class="st6" points="1715.2,964.6 1621.9,964.9 1621.3,962.4 1714.5,962.1 						"/>
						<polygon class="st6" points="1717.3,972.8 1624.1,973.2 1623.4,970.7 1716.7,970.3 						"/>
						<polygon class="st6" points="1719.5,981.1 1626.2,981.4 1625.6,978.9 1718.9,978.6 						"/>
					</g>
				</g>
			</g>
			<g>
				<g>
					<polygon class="st5" points="1566.8,1002.1 1089.7,1003.8 952.4,478.1 1014.5,411.2 1412.1,409.7 					"/>
					<polygon class="st6" points="1280.7,498.5 1112.5,499.2 1110.6,491.8 1278.7,491.2 					"/>
					<polygon class="st6" points="1307.5,519 1096.4,519.8 1094.5,512.4 1305.6,511.6 					"/>
					<g>
						<polygon class="st6" points="1365.6,620.3 1091.3,621.3 1089.4,614 1363.6,613 						"/>
						<polygon class="st6" points="1371.9,644.6 1097.7,645.6 1095.7,638.2 1370,637.2 						"/>
						<polygon class="st6" points="1378.2,668.9 1104,669.9 1102.1,662.5 1376.3,661.5 						"/>
						<polygon class="st6" points="1384.6,693.2 1110.3,694.2 1108.4,686.8 1382.7,685.8 						"/>
						<polygon class="st6" points="1390.9,717.4 1116.7,718.4 1114.8,711.1 1389,710.1 						"/>
					</g>
					<g>
						<polygon class="st6" points="1406.3,776.5 1132.1,777.5 1130.2,770.2 1404.4,769.1 						"/>
						<polygon class="st6" points="1412.7,800.8 1138.5,801.8 1136.5,794.4 1410.8,793.4 						"/>
						<polygon class="st6" points="1419,825.1 1144.8,826.1 1142.9,818.7 1417.1,817.7 						"/>
						<polygon class="st6" points="1425.4,849.3 1151.1,850.3 1149.2,843 1423.4,842 						"/>
						<polygon class="st6" points="1431.7,873.6 1157.5,874.6 1155.6,867.3 1429.8,866.2 						"/>
					</g>
				</g>
				<polygon class="st6" points="952.4,478.1 1031.9,477.8 1014.5,411.2 				"/>
			</g>
		</g>
	</g>
	<g>
		<g>
			<g>
				<path class="st20" d="M2101.6,1414.4h-388.4v-137.2h389.7c30.3,0,54.9,24.6,54.9,54.9v26.2
					C2157.7,1389.2,2132.6,1414.4,2101.6,1414.4z"/>
				<path class="st12" d="M2489.2,1333.6v20.6c0,11-3,21.4-8.2,30.2c-10.4,17.9-29.8,29.9-52,29.9h-727.9c-4.8,0-8.7-3.9-8.7-8.7
					v-3.1c0-4.8,3.9-8.7,8.7-8.7H2145c2.4-2.9,4.5-6,6.2-9.4c4.2-7.8,6.5-16.8,6.5-26.2V1332c0-4.8-0.6-9.5-1.8-14
					c-2-7.6-5.5-14.5-10.3-20.4h-444.4c-4.8,0-8.7-3.9-8.7-8.7v-3.1c0-4.8,3.9-8.7,8.7-8.7h731.5c25.8,0,47.5,17.3,54.3,40.9
					C2488.5,1323,2489.2,1328.2,2489.2,1333.6z"/>
				<path class="st21" d="M2487.1,1318.1h-331.2c-2-7.6-5.5-14.5-10.3-20.4h-444.4c-4.8,0-8.7-3.9-8.7-8.7v-3.1
					c0-4.8,3.9-8.7,8.7-8.7h731.5C2458.6,1277.2,2480.3,1294.5,2487.1,1318.1z"/>
			</g>
			<polygon class="st22" points="1713.2,1345.8 1767,1348.1 1713.2,1349.5 			"/>
			<polygon class="st22" points="1713.2,1367.3 1841.4,1369.6 1713.2,1371 			"/>
		</g>
		<g>
			<g>
				<g>
					<path class="st15" d="M1805.8,1520.8h413.5v-106.7h-416.9c-28.5,0-51.7,23.1-51.7,51.7v0
						C1750.8,1496.1,1775.4,1520.8,1805.8,1520.8z"/>
					<path class="st20" d="M2195.6,1520.8h470.6v-106.7h-471.8c-29,0-52.5,23.5-52.5,52.5v0.4
						C2141.8,1496.7,2165.9,1520.8,2195.6,1520.8z"/>
					<path class="st15" d="M2110.4,1520.8h572.1c4.4,0,8-3.6,8-8l0,0c0-4.4-3.6-8-8-8h-572.1c-4.4,0-8,3.6-8,8l0,0
						C2102.4,1517.2,2106,1520.8,2110.4,1520.8z"/>
					<path class="st15" d="M2110.4,1430h572.1c4.4,0,8-3.6,8-8l0,0c0-4.4-3.6-8-8-8h-572.1c-4.4,0-8,3.6-8,8l0,0
						C2102.4,1426.5,2106,1430,2110.4,1430z"/>
				</g>
				<polygon class="st22" points="2666.2,1467.4 2602.6,1469.2 2666.2,1470.3 				"/>
				<polygon class="st22" points="2666.2,1442.9 2514.9,1444.7 2666.2,1445.7 				"/>
			</g>
			<g>
				<path class="st12" d="M2516.5,1444.3c0,0,6.5,4.6,8.6,12.1c0.4,1.3,0.6,2.7,0.7,4.2c0.4,10,0,32.7,0,32.7l19.1-11.3l19.1,11.3
					v-30.7c0-5.8-1.6-11.5-4.7-15.2c-1.5-1.8-3.3-3.1-5.3-3.1H2516.5z"/>
				<path class="st23" d="M2516.5,1444.3c0,0,6.5,4.6,8.6,12.1l38.3,0.4c0,0-1.5-10.8-9.4-12.6H2516.5z"/>
			</g>
		</g>
		<g>
			<g>
				<g>
					<path class="st20" d="M2147.4,1277.5h422.5v-156.8H2146c-33.8,0-61.3,27.4-61.3,61.3v32.9
						C2084.8,1249.4,2112.8,1277.5,2147.4,1277.5z"/>
					<path class="st24" d="M2094.7,1181.5v33.7c0.1,14.4,8.1,26.9,19.8,33.6c5.8,3.3,12.4,5.2,19.5,5.2h458.8c5.4,0,9.7,4.4,9.7,9.7
						v4c0,5.4-4.4,9.7-9.7,9.7h-792.6c-22.7,0-42.8-11.3-55-28.6c-7.7-10.9-12.1-24.2-12.1-38.5v-26.6c0-9.8,2.2-19.1,6.3-27.4
						c10.2-21.1,31.8-35.6,56.8-35.6h796.7c5.4,0,9.7,4.4,9.7,9.7v4c0,5.4-4.4,9.7-9.7,9.7h-460.2c-11,0-21,4.7-27.9,12.2
						C2098.6,1162.9,2094.8,1171.8,2094.7,1181.5z"/>
				</g>
				<polygon class="st22" points="2569.9,1199.1 2511.1,1201.7 2569.9,1203.3 				"/>
				<polygon class="st22" points="2569.9,1163 2430,1165.6 2569.9,1167.2 				"/>
			</g>
			<g>
				<path class="st8" d="M2431.4,1165.1c0,0,9.2,5,12.3,13.1c0.5,1.4,0.9,3,1,4.6c0.5,10.9,0,35.4,0,35.4l27.3-12.3l27.2,12.3v-33.3
					c0-6.3-2.3-12.4-6.7-16.4c-2.1-1.9-4.6-3.4-7.5-3.4H2431.4z"/>
				<path class="st25" d="M2431.4,1165.1c0,0,9.2,5,12.3,13.1l54.6,0.5c0,0-2.1-11.7-13.4-13.6H2431.4z"/>
			</g>
		</g>
	</g>
	<g>
		<g>
			<path class="st16" d="M2154.8,1062.6c24.2,42.1,54.6,58.3,54.6,58.3h126.5C2335.9,1120.9,2136.3,1030.4,2154.8,1062.6z"/>
			<g>
				<path class="st18" d="M2252,1388.2c3.3,3.8,3.7,8,2.1,12.5c0,0,0,0,0,0.1c-3,8.3-13,17.7-24.6,27c-1.5,1.2-2.8,2.3-3.9,3.3
					c-0.3,0.3-0.6,0.5-0.9,0.8c-0.2,0.2-0.5,0.4-0.7,0.6c-10.8,10-6.7,12.2-26.1,32.4c-22.1,23-37.4,23.4-41.7,21.3
					c-3.7-1.8,3.8-14,12-27.7c0.4-0.7,0.8-1.3,1.2-2c1.1-1.8,2.2-3.7,3.3-5.5c9.7-16.5,7.2-24.3,4.9-48.8
					c-1.9-20-31.1-111.6-31.1-111.6l42.4-7.3c0,0,12.8,72.9,26.8,84.2c7.5,6,15.9,6.1,23.2,10.5c0.5,0.3,1,0.6,1.5,1
					C2244.5,1381.6,2248.7,1384.4,2252,1388.2z"/>
				<path class="st16" d="M2252,1388.2c3.3,3.8,3.7,8,2.1,12.5c0,0,0,0,0,0.1c-3.7,8.3-13.4,17.6-24.6,26.9
					c-1.5,1.2-2.8,2.3-3.9,3.4c-0.3,0.3-0.6,0.5-0.9,0.8c-0.2,0.2-0.5,0.4-0.7,0.6c-10.8,10-6.7,12.2-26.1,32.4
					c-22.1,23-37.4,23.4-41.7,21.3c-3.7-1.8,3.8-14,12-27.7c4.3-1.6,24.3-9.7,39.4-29.1c13.3-17,22.2-38.8,31.3-51.5
					c0.5,0.3,1,0.6,1.5,1C2244.5,1381.6,2248.7,1384.4,2252,1388.2z"/>
				<path class="st18" d="M1910.1,1361.7c-2.6,13.1-21.3,10.9-42.1,5.8c-20.8-5.1-15.9,1-45.6-2.3c-29.7-3.3-38.6-14.3-39.6-18.8
					c-0.8-3.9,13.8-5.3,29.6-7.1c2-0.2,4-0.5,5.9-0.7c17.7-2.2,30.7-13.7,46.9-23.1c15.3-8.9,38.1-45.2,38.1-45.2l40.7,3.2
					c0,0-21.3,32.4-29.6,46.5c-4.9,8.3-4.6,19.3-4,27.7C1910.7,1352.4,1911,1357.1,1910.1,1361.7z"/>
				<path class="st16" d="M1868,1367.5c-20.8-5.1-15.9,1-45.6-2.3c-29.7-3.3-38.6-14.3-39.6-18.8c-0.8-3.9,13.8-5.3,29.6-7.1
					l0.1,0.3c0,0,17.8,12.6,42.5,13.2c20.1,0.5,41.4-5.3,55.3-5.1c0.3,4.6,0.6,9.3-0.3,13.9
					C1907.5,1374.8,1888.8,1372.6,1868,1367.5z"/>
				<path class="st16" d="M2066,1101.6l38,102.3l49.6,133.6c0,0,13.5,1.3,26.4-2.4c11.9-3.4,25.5-12.4,25.5-12.4
					s-13.8-143.5-39.5-225.8c-6.6-21.1-14-38.2-22.1-47.9C2104,1001.9,2066,1101.6,2066,1101.6z"/>
				<path class="st15" d="M2104.6,939.1c24.9-8,96,2.3,167.3,16.3l14.9-24.6l154.2-12c0,0,50.9,112.8,23,184.7
					c-4.1,10.6-12.2,17.3-26.1,17.6c0,0-2.2,0-2.3,0c0,0-91.8-0.1-121.6-0.1c-76.7,0-162.3-52.7-173.3-54.9
					c-18.1-3.6-25.4,32.6-43.5,70.7c-18.1,38.1-170.4,168.5-170.4,168.5s-23.4,0.2-33.1-3.4c-10.4-3.9-14.2-9-14.2-9
					S2048.5,957.2,2104.6,939.1z"/>
				<path class="st16" d="M2287.8,718.4c54.9,30.2,166.3,92.9,166.9,92.5c0,0,40.9,15.4,64.2,0c38.7-25.7,59.5-94.9-11.3-154.4
					c-35.3-29.7-60.4-36.9-64.2-84.3c-2.1-25.7-37.2-110.6-95.7-102.8c-4.9,0.7-34.9,2.1-54.7,12.4
					C2242.7,508.2,2205.5,706.7,2287.8,718.4z"/>
				<path class="st18" d="M2333.9,692.6c-0.2,0.2,27,9.5,45.2,1.4c17.1-7.6,30.1-35.8,29.9-35.8c-7.8-0.4-16.4-7.2-23-51.9l-3.3,1.2
					l-55.8,20.1c0,0,4,17.9,6.7,35C2335.7,676.9,2336.9,690.6,2333.9,692.6z"/>
				<path class="st26" d="M2326.9,627.6c0,0,4,17.9,6.7,35c32.1-5.8,44.7-37.7,49.2-55.1L2326.9,627.6z"/>
				<path class="st18" d="M2318.5,645.4c0,0,76.4-10.3,69.3-57.7c-7.1-47.5-2.1-80.8-51.1-76.2c-49.1,4.5-55.8,24.1-57.3,40.5
					C2277.9,568.3,2298.5,646.8,2318.5,645.4z"/>
				<path class="st16" d="M2282.2,525.9c0,0,48.9,42.1,82.2,45.5c33.3,3.4,45.9-7.3,45.9-7.3s-19.6-16.3-31.4-42.6
					c-3.5-7.7-10.8-13.1-19.3-13.8C2335.8,505.8,2290.7,504.8,2282.2,525.9z"/>
				<path class="st16" d="M2312.8,522.1c0,0-16.4,15.8-21.5,27.6c-5,11.3-6.5,38.4-2.5,49.2c0,0-25.5-49.6-11.1-73.6
					C2293,499.6,2312.8,522.1,2312.8,522.1z"/>
				<path class="st5" d="M2269.5,805.2c2.3,154.6,0.6,122.3,17.5,137c4.1,3.5,15.5,5.6,30.6,6.6c47.4,3.1,130.8-4.7,133.9-13.4
					c10.9-30.3,3.2-39.7,12.3-86.2c1-4.9,2.1-10.3,3.5-16.1c7.6-31.9,15-42.7-12-94c-24.5-46.4-49.9-84.1-52.2-82.7
					c-64.6,38.3-69.8,6.1-69.8,6.1S2268.4,729.8,2269.5,805.2z"/>
				<path class="st15" d="M2104,1203.9l49.6,133.6c0,0,13.5,1.3,26.4-2.4c11.9-3.4,25.5-12.4,25.5-12.4s-13.8-143.5-39.5-225.8
					L2104,1203.9z"/>
				<path class="st5" d="M2333.5,662.6c0,0-66.5,11.3-74.3,39.9s-53.7,196.8-53.7,196.8s33.8,6.1,49.4-9.5
					c15.6-15.6,54.3-144.8,54.3-144.8L2333.5,662.6z"/>
				<path class="st27" d="M2317.7,948.8c47.4,3.1,130.8-4.7,133.9-13.4c10.9-30.3,3.2-39.7,12.3-86.2l-22.9-64.4
					c0,0,3.8,71.7-17.4,90.6c-21.1,18.9-86.6,36.4-96.9,52.2C2321.9,935.1,2318.6,942.7,2317.7,948.8z"/>
				<path class="st18" d="M2372,918.7c0,0-46.8-10.4-54.3-6.3c-7.5,4.2-26,19.3-28.3,24.5c-2.3,5.3,16.8-4,23-5.7
					c4-1.1,14.6,2.6,19.9,4.4c22.1,7.4,35.6,3.6,35.6,3.6L2372,918.7z"/>
				<path class="st5" d="M2403.4,656.4c0,0,62.8,3.9,84.6,34.2c30.6,42.7,91.3,224.6,56.5,248.9c-39.2,27.3-178.4,7.1-178.4,7.1
					s-4.6-21.6,1.8-32.1c6.4-10.5,111.2-27.4,116-32.2c4.8-4.8-60.4-94.2-60.4-108.7C2423.5,759.1,2403.4,656.4,2403.4,656.4z"/>
				<path class="st18" d="M2315.4,925.4c0,0-9.8,12.6-13,14.2c-3.2,1.5-5.3,1.1-5.3,1.1l6.6-11.9L2315.4,925.4z"/>
				<path class="st18" d="M2317.7,912.4l-28.5,13.8c0,0,1.2,2,4.7,1.8c3.5-0.2,12.4-3.4,12.4-3.4L2317.7,912.4z"/>
			</g>
			<g>
				<g>
					<polygon class="st8" points="2302.4,958.9 2077,958.9 2009.2,790.3 2234.3,790.3 					"/>
					<polygon class="st25" points="2074.3,952.4 2372,952.4 2372,958.9 2077,958.9 					"/>
				</g>
				<path class="st5" d="M2133.9,874.6c-1.7-5.9,1.7-10.7,7.7-10.7c5.9,0,12.1,4.8,13.8,10.7c1.7,5.9-1.7,10.7-7.7,10.7
					C2141.8,885.3,2135.6,880.5,2133.9,874.6z"/>
			</g>
		</g>
	</g>
	<g>
		<g>
			<path class="st14" d="M253.8,1025.2l-4.8,3.3c-5.1,3.6-12.2,2.3-15.7-2.9l-27.9-40.3c-3.6-5.1-2.3-12.2,2.9-15.7l6.9-4.8
				c1-0.7,2.4-0.4,3.1,0.6c0.7,1,0.4,2.4-0.6,3.1l-6.9,4.8c-3.1,2.2-3.9,6.5-1.7,9.6l27.9,40.3c2.2,3.1,6.5,3.9,9.6,1.7l4.8-3.3
				c3.1-2.2,3.9-6.5,1.7-9.6l-18.5-26.7c-0.7-1-0.4-2.4,0.6-3.1c1-0.7,2.4-0.4,3.1,0.6l18.5,26.7
				C260.2,1014.5,259,1021.6,253.8,1025.2z"/>
		</g>
		<g>
			<path class="st14" d="M284.4,1064.9l-8.6,6c-8,5.5-19.3,3.1-25.3-5.5l-42-60.6c-0.7-1-0.4-2.4,0.6-3.1c1-0.7,2.4-0.4,3.1,0.6
				l42,60.6c4.5,6.6,13.1,8.5,19.1,4.4l8.6-6c6-4.1,7.2-12.9,2.6-19.4l-47.8-69c-4.5-6.6-13.1-8.5-19.1-4.4c-1,0.7-2.4,0.4-3.1-0.6
				c-0.7-1-0.4-2.4,0.6-3.1c8-5.5,19.3-3.1,25.3,5.5l47.8,69C294.1,1047.9,292.4,1059.4,284.4,1064.9z"/>
		</g>
	</g>
	<g>
		<g>
			<path class="st14" d="M342.2,1381.2l1,8.5c1.1,9.1-5.4,17.4-14.5,18.5l-71.6,8.7c-9.1,1.1-17.4-5.4-18.5-14.5l-1.5-12.2
				c-0.2-1.8,1.1-3.4,2.8-3.6c1.8-0.2,3.4,1.1,3.6,2.8l1.5,12.2c0.7,5.5,5.7,9.5,11.3,8.8l71.6-8.7c5.5-0.7,9.5-5.7,8.8-11.3l-1-8.5
				c-0.7-5.5-5.7-9.5-11.3-8.8l-47.5,5.8c-1.8,0.2-3.4-1.1-3.6-2.8c-0.2-1.8,1.1-3.4,2.8-3.6l47.5-5.8
				C332.8,1365.6,341.1,1372.1,342.2,1381.2z"/>
		</g>
		<g>
			<path class="st14" d="M414.9,1368.6l1.9,15.3c1.7,14.2-9.3,27.3-24.5,29.1l-107.6,13.1c-1.8,0.2-3.4-1.1-3.6-2.8
				c-0.2-1.8,1.1-3.4,2.8-3.6l107.6-13.1c11.6-1.4,20.1-11.2,18.8-21.9l-1.9-15.3c-1.3-10.6-11.8-18.1-23.5-16.7l-122.6,14.9
				c-11.6,1.4-20.1,11.2-18.8,21.9c0.2,1.8-1.1,3.4-2.8,3.6c-1.8,0.2-3.4-1.1-3.6-2.8c-1.7-14.2,9.3-27.3,24.5-29.1l122.6-14.9
				C399.4,1344.4,413.2,1354.4,414.9,1368.6z"/>
		</g>
	</g>
	
		<ellipse transform="matrix(0.2298 -0.9732 0.9732 0.2298 852.3747 1813.4907)" class="st8" cx="1571.9" cy="368.2" rx="9.9" ry="9.9"/>
</g>
</svg>
